G75*
G70*
%OFA0B0*%
%FSLAX24Y24*%
%IPPOS*%
%LPD*%
%AMOC8*
5,1,8,0,0,1.08239X$1,22.5*
%
%ADD10C,0.0740*%
%ADD11C,0.0500*%
D10*
X001701Y000651D03*
X002701Y000751D03*
X003701Y000651D03*
X004701Y000751D03*
X005701Y000651D03*
X006701Y000751D03*
X007701Y000651D03*
X009201Y000751D03*
X010201Y000651D03*
X011201Y000751D03*
X012201Y000651D03*
X013201Y000751D03*
X014201Y000651D03*
X015201Y000751D03*
X016201Y000651D03*
X017601Y000751D03*
X018601Y000651D03*
X019601Y000751D03*
X020601Y000651D03*
X021601Y000751D03*
X022601Y000651D03*
X024601Y000751D03*
X025601Y000651D03*
X026601Y000751D03*
X027601Y000651D03*
X028601Y000751D03*
X029601Y000651D03*
X029601Y001651D03*
X028601Y001751D03*
X027601Y001651D03*
X026601Y001751D03*
X025601Y001651D03*
X024601Y001751D03*
X022601Y001651D03*
X021601Y001751D03*
X020601Y001651D03*
X019601Y001751D03*
X018601Y001651D03*
X017601Y001751D03*
X016201Y001651D03*
X015201Y001751D03*
X014201Y001651D03*
X013201Y001751D03*
X012201Y001651D03*
X011201Y001751D03*
X010201Y001651D03*
X009201Y001751D03*
X007701Y001651D03*
X006701Y001751D03*
X005701Y001651D03*
X004701Y001751D03*
X003701Y001651D03*
X002701Y001751D03*
X001701Y001651D03*
X000701Y001751D03*
X001701Y002651D03*
X002701Y002751D03*
X003701Y002651D03*
X004701Y002751D03*
X005701Y002651D03*
X006701Y002751D03*
X007701Y002651D03*
X009201Y002751D03*
X010201Y002651D03*
X011201Y002751D03*
X012201Y002651D03*
X013201Y002751D03*
X014201Y002651D03*
X015201Y002751D03*
X016201Y002651D03*
X017601Y002751D03*
X018601Y002651D03*
X019601Y002751D03*
X020601Y002651D03*
X021601Y002751D03*
X022601Y002651D03*
X024601Y002751D03*
X025601Y002651D03*
X026601Y002751D03*
X027601Y002651D03*
X028601Y002751D03*
X029601Y002651D03*
X000701Y002751D03*
X000701Y000751D03*
D11*
X000701Y001751D01*
X000701Y002751D01*
X001701Y002651D02*
X001701Y001651D01*
X001701Y000651D01*
X002701Y000751D02*
X002701Y001751D01*
X002701Y002751D01*
X003701Y002651D02*
X003701Y001651D01*
X003701Y000651D01*
X004701Y000751D02*
X004701Y001751D01*
X004701Y002751D01*
X005701Y002651D02*
X005701Y001651D01*
X005701Y000651D01*
X006701Y000751D02*
X006701Y001751D01*
X006701Y002751D01*
X007701Y002651D02*
X007701Y001651D01*
X007701Y000651D01*
X009201Y000701D02*
X009201Y002701D01*
X010201Y002701D02*
X010201Y000601D01*
X011201Y000701D02*
X011201Y002801D01*
X012201Y002701D02*
X012201Y000601D01*
X013201Y000701D02*
X013201Y002801D01*
X014201Y002701D02*
X014201Y000601D01*
X015201Y000701D02*
X015201Y002701D01*
X016201Y002701D02*
X016201Y000601D01*
X017601Y000701D02*
X017601Y002701D01*
X018601Y002701D02*
X018601Y000701D01*
X019601Y000701D02*
X019601Y002701D01*
X020601Y002701D02*
X020601Y000701D01*
X021601Y000701D02*
X021601Y002701D01*
X022601Y002701D02*
X022601Y000701D01*
X024601Y000701D02*
X024601Y002701D01*
X025601Y002701D02*
X025601Y000701D01*
X026601Y000701D02*
X026601Y002701D01*
X027601Y002701D02*
X027601Y000601D01*
X028601Y000701D02*
X028601Y002701D01*
X029601Y002701D02*
X029601Y000601D01*
M02*
