G75*
G70*
%OFA0B0*%
%FSLAX24Y24*%
%IPPOS*%
%LPD*%
%AMOC8*
5,1,8,0,0,1.08239X$1,22.5*
%
%ADD10C,0.0000*%
%ADD11C,0.0740*%
%ADD12C,0.0500*%
D10*
X000180Y000480D02*
X000480Y000180D01*
X016580Y000180D01*
X016780Y000380D01*
X016880Y000480D01*
X016880Y003080D01*
X016580Y003380D01*
X016780Y003580D01*
X016880Y003680D01*
X016880Y006280D01*
X016580Y006580D01*
X016780Y006780D01*
X016880Y006880D01*
X016880Y009480D01*
X016580Y009780D01*
X013080Y009780D01*
X013380Y010080D01*
X013380Y012680D01*
X013080Y012980D01*
X013380Y013280D01*
X013380Y015880D01*
X013080Y016180D01*
X013380Y016480D01*
X013380Y019080D01*
X013080Y019380D01*
X000480Y019380D01*
X000180Y019080D01*
X000180Y016480D01*
X000480Y016180D01*
X000180Y015880D01*
X000180Y013280D01*
X000480Y012980D01*
X000180Y012680D01*
X000180Y010080D01*
X000480Y009780D01*
X000280Y009580D01*
X000180Y009480D01*
X000180Y006880D01*
X000480Y006580D01*
X000280Y006380D01*
X000180Y006280D01*
X000180Y003680D01*
X000480Y003380D01*
X000280Y003180D01*
X000180Y003080D01*
X000180Y000480D01*
D11*
X000780Y000830D03*
X000780Y001830D03*
X000780Y002830D03*
X001780Y002730D03*
X001780Y001730D03*
X001780Y000730D03*
X002780Y000830D03*
X002780Y001830D03*
X002780Y002830D03*
X003780Y002730D03*
X003780Y001730D03*
X003780Y000730D03*
X004780Y000830D03*
X004780Y001830D03*
X004780Y002830D03*
X005780Y002730D03*
X005780Y001730D03*
X005780Y000730D03*
X006780Y000830D03*
X006780Y001830D03*
X006780Y002830D03*
X007780Y002730D03*
X007780Y001730D03*
X007780Y000730D03*
X009280Y000830D03*
X009280Y001830D03*
X009280Y002830D03*
X010280Y002730D03*
X010280Y001730D03*
X010280Y000730D03*
X011280Y000830D03*
X011280Y001830D03*
X011280Y002830D03*
X012280Y002730D03*
X012280Y001730D03*
X012280Y000730D03*
X013280Y000830D03*
X013280Y001830D03*
X013280Y002830D03*
X014280Y002730D03*
X014280Y001730D03*
X014280Y000730D03*
X015280Y000830D03*
X015280Y001830D03*
X015280Y002830D03*
X016280Y002730D03*
X016280Y001730D03*
X016280Y000730D03*
X016280Y003930D03*
X016280Y004930D03*
X016280Y005930D03*
X015280Y006030D03*
X015280Y005030D03*
X015280Y004030D03*
X014280Y003930D03*
X014280Y004930D03*
X014280Y005930D03*
X013280Y006030D03*
X013280Y005030D03*
X013280Y004030D03*
X012280Y003930D03*
X012280Y004930D03*
X012280Y005930D03*
X011280Y006030D03*
X011280Y005030D03*
X011280Y004030D03*
X010280Y003930D03*
X010280Y004930D03*
X010280Y005930D03*
X009280Y006030D03*
X009280Y005030D03*
X009280Y004030D03*
X007780Y003930D03*
X007780Y004930D03*
X007780Y005930D03*
X006780Y006030D03*
X006780Y005030D03*
X006780Y004030D03*
X005780Y003930D03*
X005780Y004930D03*
X005780Y005930D03*
X004780Y006030D03*
X004780Y005030D03*
X004780Y004030D03*
X003780Y003930D03*
X003780Y004930D03*
X003780Y005930D03*
X002780Y006030D03*
X002780Y005030D03*
X002780Y004030D03*
X001780Y003930D03*
X001780Y004930D03*
X001780Y005930D03*
X000780Y006030D03*
X000780Y005030D03*
X000780Y004030D03*
X001780Y007130D03*
X001780Y008130D03*
X001780Y009130D03*
X000780Y009230D03*
X000780Y008230D03*
X000780Y007230D03*
X002780Y007230D03*
X002780Y008230D03*
X002780Y009230D03*
X003780Y009130D03*
X003780Y008130D03*
X003780Y007130D03*
X004780Y007230D03*
X004780Y008230D03*
X004780Y009230D03*
X005780Y009130D03*
X005780Y008130D03*
X005780Y007130D03*
X006780Y007230D03*
X006780Y008230D03*
X006780Y009230D03*
X007780Y009130D03*
X007780Y008130D03*
X007780Y007130D03*
X009280Y007230D03*
X009280Y008230D03*
X009280Y009230D03*
X010280Y009130D03*
X010280Y008130D03*
X010280Y007130D03*
X011280Y007230D03*
X011280Y008230D03*
X011280Y009230D03*
X012280Y009130D03*
X012280Y008130D03*
X012280Y007130D03*
X013280Y007230D03*
X013280Y008230D03*
X013280Y009230D03*
X014280Y009130D03*
X014280Y008130D03*
X014280Y007130D03*
X015280Y007230D03*
X015280Y008230D03*
X015280Y009230D03*
X016280Y009130D03*
X016280Y008130D03*
X016280Y007130D03*
X012780Y010330D03*
X012780Y011330D03*
X012780Y012330D03*
X011780Y012430D03*
X011780Y011430D03*
X011780Y010430D03*
X010780Y010330D03*
X010780Y011330D03*
X010780Y012330D03*
X009780Y012430D03*
X009780Y011430D03*
X009780Y010430D03*
X008780Y010330D03*
X008780Y011330D03*
X008780Y012330D03*
X007780Y012430D03*
X007780Y011430D03*
X007780Y010430D03*
X005780Y010330D03*
X005780Y011330D03*
X005780Y012330D03*
X004780Y012430D03*
X004780Y011430D03*
X004780Y010430D03*
X003780Y010330D03*
X003780Y011330D03*
X003780Y012330D03*
X002780Y012430D03*
X002780Y011430D03*
X002780Y010430D03*
X001780Y010330D03*
X001780Y011330D03*
X001780Y012330D03*
X000780Y012430D03*
X000780Y011430D03*
X000780Y010430D03*
X000780Y013630D03*
X000780Y014630D03*
X000780Y015630D03*
X001780Y015530D03*
X001780Y014530D03*
X001780Y013530D03*
X002780Y013630D03*
X002780Y014630D03*
X002780Y015630D03*
X003780Y015530D03*
X003780Y014530D03*
X003780Y013530D03*
X004780Y013630D03*
X004780Y014630D03*
X004780Y015630D03*
X005780Y015530D03*
X005780Y014530D03*
X005780Y013530D03*
X007780Y013630D03*
X007780Y014630D03*
X007780Y015630D03*
X008780Y015530D03*
X008780Y014530D03*
X008780Y013530D03*
X009780Y013630D03*
X009780Y014630D03*
X009780Y015630D03*
X010780Y015530D03*
X010780Y014530D03*
X010780Y013530D03*
X011780Y013630D03*
X011780Y014630D03*
X011780Y015630D03*
X012780Y015530D03*
X012780Y014530D03*
X012780Y013530D03*
X012780Y016730D03*
X012780Y017730D03*
X012780Y018730D03*
X011780Y018830D03*
X011780Y017830D03*
X011780Y016830D03*
X010780Y016730D03*
X010780Y017730D03*
X010780Y018730D03*
X009780Y018830D03*
X009780Y017830D03*
X009780Y016830D03*
X008780Y016730D03*
X008780Y017730D03*
X008780Y018730D03*
X007780Y018830D03*
X007780Y017830D03*
X007780Y016830D03*
X005780Y016730D03*
X005780Y017730D03*
X005780Y018730D03*
X004780Y018830D03*
X004780Y017830D03*
X004780Y016830D03*
X003780Y016730D03*
X003780Y017730D03*
X003780Y018730D03*
X002780Y018830D03*
X002780Y017830D03*
X002780Y016830D03*
X001780Y016730D03*
X001780Y017730D03*
X001780Y018730D03*
X000780Y018830D03*
X000780Y017830D03*
X000780Y016830D03*
D12*
X000780Y017830D01*
X000780Y018830D01*
X001780Y018730D02*
X001780Y017730D01*
X001780Y016730D01*
X002780Y016830D02*
X002780Y017830D01*
X002780Y018830D01*
X003780Y018730D02*
X003780Y017730D01*
X003780Y016730D01*
X004780Y016830D02*
X004780Y017830D01*
X004780Y018830D01*
X005780Y018730D02*
X005780Y017730D01*
X005780Y016730D01*
X005780Y015530D02*
X005780Y014530D01*
X005780Y013530D01*
X004780Y013630D02*
X004780Y014630D01*
X004780Y015630D01*
X003780Y015530D02*
X003780Y014530D01*
X003780Y013530D01*
X002780Y013630D02*
X002780Y014630D01*
X002780Y015630D01*
X001780Y015530D02*
X001780Y014530D01*
X001780Y013530D01*
X000780Y013630D02*
X000780Y014630D01*
X000780Y015630D01*
X000780Y012430D02*
X000780Y011430D01*
X000780Y010430D01*
X001780Y010330D02*
X001780Y011330D01*
X001780Y012330D01*
X002780Y012430D02*
X002780Y011430D01*
X002780Y010430D01*
X003780Y010330D02*
X003780Y011330D01*
X003780Y012330D01*
X004780Y012430D02*
X004780Y011430D01*
X004780Y010430D01*
X005780Y010330D02*
X005780Y011330D01*
X005780Y012330D01*
X007780Y012430D02*
X007780Y011430D01*
X007780Y010430D01*
X008780Y010330D02*
X008780Y011330D01*
X008780Y012330D01*
X009780Y012430D02*
X009780Y011430D01*
X009780Y010430D01*
X010780Y010330D02*
X010780Y011330D01*
X010780Y012330D01*
X011780Y012430D02*
X011780Y011430D01*
X011780Y010430D01*
X012780Y010330D02*
X012780Y011330D01*
X012780Y012330D01*
X012780Y013530D02*
X012780Y014530D01*
X012780Y015530D01*
X011780Y015630D02*
X011780Y014630D01*
X011780Y013630D01*
X010780Y013530D02*
X010780Y014530D01*
X010780Y015530D01*
X009780Y015630D02*
X009780Y014630D01*
X009780Y013630D01*
X008780Y013530D02*
X008780Y014530D01*
X008780Y015530D01*
X007780Y015630D02*
X007780Y014630D01*
X007780Y013630D01*
X007780Y016830D02*
X007780Y017830D01*
X007780Y018830D01*
X008780Y018730D02*
X008780Y017730D01*
X008780Y016730D01*
X009780Y016830D02*
X009780Y017830D01*
X009780Y018830D01*
X010780Y018730D02*
X010780Y017730D01*
X010780Y016730D01*
X011780Y016830D02*
X011780Y017830D01*
X011780Y018830D01*
X012780Y018730D02*
X012780Y017730D01*
X012780Y016730D01*
X013280Y009230D02*
X013280Y008230D01*
X013280Y007230D01*
X012280Y007130D02*
X012280Y008130D01*
X012280Y009130D01*
X011280Y009230D02*
X011280Y008230D01*
X011280Y007230D01*
X010280Y007130D02*
X010280Y008130D01*
X010280Y009130D01*
X009280Y009230D02*
X009280Y008230D01*
X009280Y007230D01*
X009280Y006030D02*
X009280Y005030D01*
X009280Y004030D01*
X010280Y003930D02*
X010280Y004930D01*
X010280Y005930D01*
X011280Y006030D02*
X011280Y005030D01*
X011280Y004030D01*
X012280Y003930D02*
X012280Y004930D01*
X012280Y005930D01*
X013280Y006030D02*
X013280Y005030D01*
X013280Y004030D01*
X014280Y003930D02*
X014280Y004930D01*
X014280Y005930D01*
X015280Y006030D02*
X015280Y005030D01*
X015280Y004030D01*
X016280Y003930D02*
X016280Y004930D01*
X016280Y005930D01*
X016280Y007130D02*
X016280Y008130D01*
X016280Y009130D01*
X015280Y009230D02*
X015280Y008230D01*
X015280Y007230D01*
X014280Y007130D02*
X014280Y008130D01*
X014280Y009130D01*
X013280Y002830D02*
X013280Y001830D01*
X013280Y000830D01*
X012280Y000730D02*
X012280Y001730D01*
X012280Y002730D01*
X011280Y002830D02*
X011280Y001830D01*
X011280Y000830D01*
X010280Y000730D02*
X010280Y001730D01*
X010280Y002730D01*
X009280Y002830D02*
X009280Y001830D01*
X009280Y000830D01*
X007780Y000680D02*
X007780Y002780D01*
X006780Y002880D02*
X006780Y000780D01*
X005780Y000780D02*
X005780Y002780D01*
X004780Y002780D02*
X004780Y000780D01*
X003780Y000680D02*
X003780Y002780D01*
X002780Y002780D02*
X002780Y000780D01*
X001780Y000780D02*
X001780Y002780D01*
X000780Y002780D02*
X000780Y000780D01*
X000780Y003980D02*
X000780Y005980D01*
X001780Y005980D02*
X001780Y003980D01*
X002780Y003980D02*
X002780Y005980D01*
X003780Y005980D02*
X003780Y003880D01*
X004780Y003980D02*
X004780Y005980D01*
X005780Y005980D02*
X005780Y003980D01*
X006780Y003980D02*
X006780Y006080D01*
X007780Y005980D02*
X007780Y003880D01*
X007780Y007080D02*
X007780Y009180D01*
X006780Y009280D02*
X006780Y007180D01*
X005780Y007180D02*
X005780Y009180D01*
X004780Y009180D02*
X004780Y007180D01*
X003780Y007080D02*
X003780Y009180D01*
X002780Y009180D02*
X002780Y007180D01*
X001780Y007180D02*
X001780Y009180D01*
X000780Y009180D02*
X000780Y007180D01*
X014280Y002730D02*
X014280Y001730D01*
X014280Y000730D01*
X015280Y000830D02*
X015280Y001830D01*
X015280Y002830D01*
X016280Y002730D02*
X016280Y001730D01*
X016280Y000730D01*
M02*
