%
M48
M72
T01C0.0400
%
T01
X780Y830
X780Y1830
X780Y2830
X1780Y2730
X1780Y1730
X1780Y730
X2780Y830
X2780Y1830
X2780Y2830
X3780Y2730
X3780Y1730
X3780Y730
X4780Y830
X4780Y1830
X4780Y2830
X5780Y2730
X5780Y1730
X5780Y730
X6780Y830
X6780Y1830
X6780Y2830
X7780Y2730
X7780Y1730
X7780Y730
X9280Y830
X9280Y1830
X9280Y2830
X10280Y2730
X10280Y1730
X10280Y730
X11280Y830
X11280Y1830
X11280Y2830
X12280Y2730
X12280Y1730
X12280Y730
X13280Y830
X13280Y1830
X13280Y2830
X14280Y2730
X14280Y1730
X14280Y730
X15280Y830
X15280Y1830
X15280Y2830
X16280Y2730
X16280Y1730
X16280Y730
X16280Y3930
X16280Y4930
X16280Y5930
X15280Y6030
X15280Y5030
X15280Y4030
X14280Y3930
X14280Y4930
X14280Y5930
X13280Y6030
X13280Y5030
X13280Y4030
X12280Y3930
X12280Y4930
X12280Y5930
X11280Y6030
X11280Y5030
X11280Y4030
X10280Y3930
X10280Y4930
X10280Y5930
X9280Y6030
X9280Y5030
X9280Y4030
X7780Y3930
X7780Y4930
X7780Y5930
X6780Y6030
X6780Y5030
X6780Y4030
X5780Y3930
X5780Y4930
X5780Y5930
X4780Y6030
X4780Y5030
X4780Y4030
X3780Y3930
X3780Y4930
X3780Y5930
X2780Y6030
X2780Y5030
X2780Y4030
X1780Y3930
X1780Y4930
X1780Y5930
X780Y6030
X780Y5030
X780Y4030
X1780Y7130
X1780Y8130
X1780Y9130
X780Y9230
X780Y8230
X780Y7230
X2780Y7230
X2780Y8230
X2780Y9230
X3780Y9130
X3780Y8130
X3780Y7130
X4780Y7230
X4780Y8230
X4780Y9230
X5780Y9130
X5780Y8130
X5780Y7130
X6780Y7230
X6780Y8230
X6780Y9230
X7780Y9130
X7780Y8130
X7780Y7130
X9280Y7230
X9280Y8230
X9280Y9230
X10280Y9130
X10280Y8130
X10280Y7130
X11280Y7230
X11280Y8230
X11280Y9230
X12280Y9130
X12280Y8130
X12280Y7130
X13280Y7230
X13280Y8230
X13280Y9230
X14280Y9130
X14280Y8130
X14280Y7130
X15280Y7230
X15280Y8230
X15280Y9230
X16280Y9130
X16280Y8130
X16280Y7130
X12780Y10330
X12780Y11330
X12780Y12330
X11780Y12430
X11780Y11430
X11780Y10430
X10780Y10330
X10780Y11330
X10780Y12330
X9780Y12430
X9780Y11430
X9780Y10430
X8780Y10330
X8780Y11330
X8780Y12330
X7780Y12430
X7780Y11430
X7780Y10430
X5780Y10330
X5780Y11330
X5780Y12330
X4780Y12430
X4780Y11430
X4780Y10430
X3780Y10330
X3780Y11330
X3780Y12330
X2780Y12430
X2780Y11430
X2780Y10430
X1780Y10330
X1780Y11330
X1780Y12330
X780Y12430
X780Y11430
X780Y10430
X780Y13630
X780Y14630
X780Y15630
X1780Y15530
X1780Y14530
X1780Y13530
X2780Y13630
X2780Y14630
X2780Y15630
X3780Y15530
X3780Y14530
X3780Y13530
X4780Y13630
X4780Y14630
X4780Y15630
X5780Y15530
X5780Y14530
X5780Y13530
X7780Y13630
X7780Y14630
X7780Y15630
X8780Y15530
X8780Y14530
X8780Y13530
X9780Y13630
X9780Y14630
X9780Y15630
X10780Y15530
X10780Y14530
X10780Y13530
X11780Y13630
X11780Y14630
X11780Y15630
X12780Y15530
X12780Y14530
X12780Y13530
X12780Y16730
X12780Y17730
X12780Y18730
X11780Y18830
X11780Y17830
X11780Y16830
X10780Y16730
X10780Y17730
X10780Y18730
X9780Y18830
X9780Y17830
X9780Y16830
X8780Y16730
X8780Y17730
X8780Y18730
X7780Y18830
X7780Y17830
X7780Y16830
X5780Y16730
X5780Y17730
X5780Y18730
X4780Y18830
X4780Y17830
X4780Y16830
X3780Y16730
X3780Y17730
X3780Y18730
X2780Y18830
X2780Y17830
X2780Y16830
X1780Y16730
X1780Y17730
X1780Y18730
X780Y18830
X780Y17830
X780Y16830
M30
