%
M48
M72
T01C0.0236
T02C0.0400
%
T01
X8461Y801
X8451Y1251
X8451Y1701
X8451Y2151
X8451Y2601
X23601Y2601
X23601Y2151
X23601Y1701
X23601Y1251
X23601Y801
T02
X1701Y651
X2701Y751
X3701Y651
X4701Y751
X5701Y651
X6701Y751
X7701Y651
X9201Y751
X10201Y651
X11201Y751
X12201Y651
X13201Y751
X14201Y651
X15201Y751
X16201Y651
X17601Y751
X18601Y651
X19601Y751
X20601Y651
X21601Y751
X22601Y651
X24601Y751
X25601Y651
X26601Y751
X27601Y651
X28601Y751
X29601Y651
X29601Y1651
X28601Y1751
X27601Y1651
X26601Y1751
X25601Y1651
X24601Y1751
X22601Y1651
X21601Y1751
X20601Y1651
X19601Y1751
X18601Y1651
X17601Y1751
X16201Y1651
X15201Y1751
X14201Y1651
X13201Y1751
X12201Y1651
X11201Y1751
X10201Y1651
X9201Y1751
X7701Y1651
X6701Y1751
X5701Y1651
X4701Y1751
X3701Y1651
X2701Y1751
X1701Y1651
X701Y1751
X1701Y2651
X2701Y2751
X3701Y2651
X4701Y2751
X5701Y2651
X6701Y2751
X7701Y2651
X9201Y2751
X10201Y2651
X11201Y2751
X12201Y2651
X13201Y2751
X14201Y2651
X15201Y2751
X16201Y2651
X17601Y2751
X18601Y2651
X19601Y2751
X20601Y2651
X21601Y2751
X22601Y2651
X24601Y2751
X25601Y2651
X26601Y2751
X27601Y2651
X28601Y2751
X29601Y2651
X701Y2751
X701Y751
M30
